<svg version="1.2" xmlns="http://www.w3.org/2000/svg" viewBox="0 0 64 64" width="64" height="64"><style>.a{fill:#106ebe}.b{fill:none;stroke:#fff;stroke-linecap:round;stroke-width:7.5}.c{fill:none;stroke:#0ffcbe;stroke-linecap:round;stroke-linejoin:round;stroke-width:5}</style><path fill-rule="evenodd" class="a" d="m17 0h30c9.4 0 17 7.6 17 17v30c0 9.4-7.6 17-17 17h-30c-9.4 0-17-7.6-17-17v-30c0-9.4 7.6-17 17-17z"/><path class="b" d="m46.8 19.3c-5.3-6.2-13.9-8.4-21.6-5.6-7.6 2.8-12.7 10.1-12.7 18.3 0 8.2 5.1 15.5 12.7 18.3 7.7 2.8 16.3 0.6 21.6-5.6"/><path class="c" d="m44 19h8.5v8.5m-0.5-7.5l-12 12"/></svg>